<svg version="1.1" id="Layer_1" xmlns="http://www.w3.org/2000/svg" xmlns:xlink="http://www.w3.org/1999/xlink" x="0px" y="0px"
	 width="100%" viewBox="0 0 294 294" enable-background="new 0 0 294 294" xml:space="preserve">
<path fill="#FFFFFF" opacity="1.000000" stroke="none" 
	d="
M159.000000,295.000000 
	C106.000000,295.000000 53.500000,295.000000 1.000000,295.000000 
	C1.000000,197.000000 1.000000,99.000000 1.000000,1.000000 
	C99.000000,1.000000 197.000000,1.000000 295.000000,1.000000 
	C295.000000,99.000000 295.000000,197.000000 295.000000,295.000000 
	C249.833328,295.000000 204.666672,295.000000 159.000000,295.000000 
M249.956375,256.982330 
	C252.884583,256.982330 255.812775,256.982330 258.881592,256.982330 
	C258.881592,186.001953 258.881592,115.816505 258.881592,45.388947 
	C188.455734,45.388947 118.318184,45.388947 48.026554,45.388947 
	C47.860836,49.084484 47.712376,52.395073 46.732655,55.861057 
	C43.636871,55.861057 40.541088,55.861057 37.347878,55.861057 
	C37.347878,126.659500 37.347878,196.560257 37.347878,266.719757 
	C107.917236,266.719757 178.140305,266.719757 249.046906,266.719757 
	C249.046906,263.283417 249.046906,260.166504 249.956375,256.982330 
z"/>
<path fill="#8BD8BC" opacity="1.000000" stroke="none" 
	d="
M47.563919,55.705662 
	C47.712376,52.395073 47.860836,49.084484 48.026554,45.388947 
	C118.318184,45.388947 188.455734,45.388947 258.881592,45.388947 
	C258.881592,115.816505 258.881592,186.001953 258.881592,256.982330 
	C255.812775,256.982330 252.884583,256.982330 249.029129,256.990662 
	C183.512497,256.994934 118.923119,256.991425 54.333736,256.986084 
	C47.952415,256.985565 47.948009,256.980377 47.947887,250.433975 
	C47.946739,187.675720 47.951000,124.917458 47.931057,62.159203 
	C47.930374,60.007984 47.691673,57.856842 47.563919,55.705662 
M206.543182,81.263000 
	C206.261841,81.415672 206.149811,81.649559 206.077621,82.862160 
	C206.062180,85.586571 206.046722,88.310974 205.114639,91.101471 
	C202.202209,91.101471 199.289795,91.101471 196.363892,91.101471 
	C196.363892,95.088455 196.363892,98.279938 196.363892,101.558624 
	C199.683029,101.558624 202.579315,101.558624 205.963516,101.558624 
	C205.963516,97.823044 205.963516,94.393684 206.880844,91.104843 
	C209.784607,91.104843 212.688370,91.104843 215.688187,91.104843 
	C215.688187,87.442276 215.688187,84.444412 215.688187,81.249321 
	C212.500336,81.249321 209.728653,81.249321 206.543182,81.263000 
M89.499702,181.915817 
	C90.633949,182.906006 92.594521,183.784485 92.746346,184.907501 
	C93.188667,188.179184 92.905632,191.548645 92.910561,194.879776 
	C92.934563,211.104446 101.634361,219.872787 117.747734,219.912094 
	C119.677681,219.916794 121.607651,219.912735 124.200325,219.912735 
	C124.200325,226.000870 124.200325,231.386536 124.200325,236.735336 
	C144.636826,236.735336 164.398651,236.735336 184.807190,236.735336 
	C184.807190,234.684113 184.807190,232.905609 184.807190,231.127090 
	C184.807236,218.302231 184.653076,205.473785 184.951843,192.655899 
	C185.004608,190.391953 186.423065,187.619110 188.104446,186.022095 
	C198.579758,176.072372 204.190109,163.903229 205.937653,149.409668 
	C203.282867,149.122025 200.889130,148.862656 198.382019,148.591019 
	C198.382019,145.344727 198.382019,142.426575 198.382019,139.264542 
	C200.905502,139.035324 203.164917,138.830093 205.798691,138.590851 
	C205.041153,134.964371 204.574936,131.511322 203.579498,128.218216 
	C201.423920,121.087006 200.916321,120.908089 193.196503,122.778931 
	C193.039551,125.449089 192.878876,128.182632 192.724792,130.804138 
	C189.204773,130.804138 186.295761,130.804138 183.217407,130.804138 
	C183.217407,127.503456 183.217407,124.595596 183.217407,121.406761 
	C186.550293,121.180367 189.606506,120.972763 192.499619,120.776245 
	C193.024414,117.154358 193.479813,114.011505 194.037521,110.162476 
	C190.856140,106.660118 186.747696,102.137169 182.435242,97.389610 
	C179.136353,103.281937 175.009476,100.674919 171.355347,100.797417 
	C170.135101,90.780098 170.154205,90.675919 160.235916,88.856819 
	C147.566696,86.533180 135.294464,87.982071 123.936897,94.165459 
	C107.270584,103.239098 95.878197,116.217857 93.850357,136.021408 
	C93.333847,141.065582 92.066605,146.131714 90.415848,150.937561 
	C87.988266,158.005005 84.894722,164.843048 82.106232,171.787384 
	C79.184937,179.062439 80.873825,181.675980 89.499702,181.915817 
M211.467712,108.065697 
	C209.733337,108.151268 207.998978,108.236847 206.313278,108.320015 
	C206.313278,112.020058 206.313278,115.093689 206.313278,118.394150 
	C209.629608,118.394150 212.647339,118.394150 216.099457,118.394150 
	C216.099457,115.741432 215.985977,113.449539 216.128006,111.173592 
	C216.307968,108.289719 214.617584,107.907715 211.467712,108.065697 
M185.713531,74.923103 
	C187.967651,74.923103 190.221756,74.923103 192.663651,74.923103 
	C192.663651,71.112549 192.663651,67.930199 192.663651,64.654861 
	C189.295471,64.654861 186.290314,64.654861 182.028824,64.654861 
	C183.086014,68.543549 183.947174,71.711113 185.713531,74.923103 
M224.221924,138.928162 
	C221.656677,138.928162 219.091415,138.928162 216.540024,138.928162 
	C216.540024,142.713531 216.540024,145.719452 216.540024,148.702209 
	C220.066559,148.702209 223.138092,148.702209 227.503891,148.702209 
	C226.627472,145.127167 225.875137,142.058334 224.221924,138.928162 
z"/>
<path fill="#C4EBDC" opacity="1.000000" stroke="none" 
	d="
M47.148285,55.783360 
	C47.691673,57.856842 47.930374,60.007984 47.931057,62.159203 
	C47.951000,124.917458 47.946739,187.675720 47.947887,250.433975 
	C47.948009,256.980377 47.952415,256.985565 54.333736,256.986084 
	C118.923119,256.991425 183.512497,256.994934 248.574402,257.024292 
	C249.046906,260.166504 249.046906,263.283417 249.046906,266.719757 
	C178.140305,266.719757 107.917236,266.719757 37.347878,266.719757 
	C37.347878,196.560257 37.347878,126.659500 37.347878,55.861057 
	C40.541088,55.861057 43.636871,55.861057 47.148285,55.783360 
z"/>
<path fill="#FEFFFE" opacity="1.000000" stroke="none" 
	d="
M89.057709,181.914642 
	C80.873825,181.675980 79.184937,179.062439 82.106232,171.787384 
	C84.894722,164.843048 87.988266,158.005005 90.415848,150.937561 
	C92.066605,146.131714 93.333847,141.065582 93.850357,136.021408 
	C95.878197,116.217857 107.270584,103.239098 123.936897,94.165459 
	C135.294464,87.982071 147.566696,86.533180 160.235916,88.856819 
	C170.154205,90.675919 170.135101,90.780098 171.355347,100.797417 
	C175.009476,100.674919 179.136353,103.281937 182.435242,97.389610 
	C186.747696,102.137169 190.856140,106.660118 194.037521,110.162476 
	C193.479813,114.011505 193.024414,117.154358 192.499619,120.776245 
	C189.606506,120.972763 186.550293,121.180367 183.217407,121.406761 
	C183.217407,124.595596 183.217407,127.503456 183.217407,130.804138 
	C186.295761,130.804138 189.204773,130.804138 192.724792,130.804138 
	C192.878876,128.182632 193.039551,125.449089 193.196503,122.778931 
	C200.916321,120.908089 201.423920,121.087006 203.579498,128.218216 
	C204.574936,131.511322 205.041153,134.964371 205.798691,138.590851 
	C203.164917,138.830093 200.905502,139.035324 198.382019,139.264542 
	C198.382019,142.426575 198.382019,145.344727 198.382019,148.591019 
	C200.889130,148.862656 203.282867,149.122025 205.937653,149.409668 
	C204.190109,163.903229 198.579758,176.072372 188.104446,186.022095 
	C186.423065,187.619110 185.004608,190.391953 184.951843,192.655899 
	C184.653076,205.473785 184.807236,218.302231 184.807190,231.127090 
	C184.807190,232.905609 184.807190,234.684113 184.807190,236.735336 
	C164.398651,236.735336 144.636826,236.735336 124.200325,236.735336 
	C124.200325,231.386536 124.200325,226.000870 124.200325,219.912735 
	C121.607651,219.912735 119.677681,219.916794 117.747734,219.912094 
	C101.634361,219.872787 92.934563,211.104446 92.910561,194.879776 
	C92.905632,191.548645 93.188667,188.179184 92.746346,184.907501 
	C92.594521,183.784485 90.633949,182.906006 89.057709,181.914642 
M137.564957,113.245453 
	C137.254395,113.413841 137.139786,113.670006 137.135712,114.920181 
	C137.135712,117.688118 137.135712,120.456047 137.135712,123.146584 
	C138.087296,123.458000 138.536407,123.706963 139.001694,123.742142 
	C147.678864,124.398201 147.679260,124.392868 147.000031,133.020584 
	C143.767227,133.176819 140.534424,133.333054 137.465515,133.481369 
	C137.465515,137.307831 137.465515,140.513977 137.465515,143.547684 
	C141.151535,143.547684 144.362289,143.547684 147.973099,143.547684 
	C147.973099,139.975311 147.973099,136.842773 148.882919,133.842560 
	C151.788330,133.842560 154.693741,133.842560 158.104477,133.842560 
	C158.104477,139.401718 158.104477,143.985565 158.104477,148.966354 
	C161.762619,148.966354 164.898621,148.966354 167.944031,149.886292 
	C167.944031,152.806335 167.944031,155.726379 167.944031,158.630966 
	C171.690582,158.630966 174.709259,158.630966 177.657349,158.630966 
	C177.657349,155.259628 177.657349,152.348068 177.657349,149.033569 
	C174.202835,149.033569 171.084015,149.033569 167.920319,148.093033 
	C167.920319,141.581909 167.920319,135.070801 167.920319,128.445343 
	C164.141876,128.445343 161.234848,128.445343 158.403671,128.445343 
	C157.993881,126.532173 157.662201,124.983597 157.279465,123.196739 
	C155.541458,123.196739 154.068054,123.226753 152.596405,123.188644 
	C150.992096,123.147102 149.389435,123.042389 147.509827,122.951920 
	C147.387344,121.126022 147.290054,119.676399 147.192917,118.226753 
	C147.087036,116.646988 146.981308,115.067215 146.857712,113.221344 
	C143.581055,113.221344 140.798325,113.221344 137.564957,113.245453 
M157.515976,111.935928 
	C159.250183,111.848679 160.984375,111.761429 162.643677,111.677940 
	C162.643677,107.931290 162.643677,104.841881 162.643677,101.463196 
	C159.143326,101.463196 155.934464,101.463196 152.471100,101.463196 
	C152.471100,104.949760 152.471100,108.158669 152.471100,111.618317 
	C154.032089,111.738213 155.317352,111.836929 157.515976,111.935928 
M176.138351,123.777893 
	C176.975952,120.469353 177.813568,117.160812 178.744598,113.483223 
	C174.300446,113.483223 171.274246,113.483223 168.174744,113.483223 
	C168.174744,116.991257 168.174744,120.078049 168.174744,123.824959 
	C170.711685,123.824959 172.977768,123.824959 176.138351,123.777893 
z"/>
<path fill="#F6FCFA" opacity="1.000000" stroke="none" 
	d="
M205.963516,90.964333 
	C205.963516,94.393684 205.963516,97.823044 205.963516,101.558624 
	C202.579315,101.558624 199.683029,101.558624 196.363892,101.558624 
	C196.363892,98.279938 196.363892,95.088455 196.363892,91.101471 
	C199.289795,91.101471 202.202209,91.101471 205.553421,91.053085 
	C205.992203,91.004692 205.963516,90.964333 205.963516,90.964333 
z"/>
<path fill="#FCFEFD" opacity="1.000000" stroke="none" 
	d="
M211.924316,108.066391 
	C214.617584,107.907715 216.307968,108.289719 216.128006,111.173592 
	C215.985977,113.449539 216.099457,115.741432 216.099457,118.394150 
	C212.647339,118.394150 209.629608,118.394150 206.313278,118.394150 
	C206.313278,115.093689 206.313278,112.020058 206.313278,108.320015 
	C207.998978,108.236847 209.733337,108.151268 211.924316,108.066391 
z"/>
<path fill="#FCFEFD" opacity="1.000000" stroke="none" 
	d="
M185.260925,74.900894 
	C183.947174,71.711113 183.086014,68.543549 182.028824,64.654861 
	C186.290314,64.654861 189.295471,64.654861 192.663651,64.654861 
	C192.663651,67.930199 192.663651,71.112549 192.663651,74.923103 
	C190.221756,74.923103 187.967651,74.923103 185.260925,74.900894 
z"/>
<path fill="#FCFEFD" opacity="1.000000" stroke="none" 
	d="
M224.672363,138.958832 
	C225.875137,142.058334 226.627472,145.127167 227.503891,148.702209 
	C223.138092,148.702209 220.066559,148.702209 216.540024,148.702209 
	C216.540024,145.719452 216.540024,142.713531 216.540024,138.928162 
	C219.091415,138.928162 221.656677,138.928162 224.672363,138.958832 
z"/>
<path fill="#FCFEFD" opacity="1.000000" stroke="none" 
	d="
M206.956955,81.249321 
	C209.728653,81.249321 212.500336,81.249321 215.688187,81.249321 
	C215.688187,84.444412 215.688187,87.442276 215.688187,91.104843 
	C212.688370,91.104843 209.784607,91.104843 206.422180,91.034592 
	C205.963516,90.964333 205.992203,91.004692 206.011749,91.020035 
	C206.046722,88.310974 206.062180,85.586571 206.298584,82.330688 
	C206.716721,81.656792 206.862518,81.473488 206.956955,81.249321 
z"/>
<path fill="#F6FCFA" opacity="1.000000" stroke="none" 
	d="
M206.750061,81.256165 
	C206.862518,81.473488 206.716721,81.656792 206.363312,81.881935 
	C206.149811,81.649559 206.261841,81.415672 206.750061,81.256165 
z"/>
<path fill="#8BD8BC" opacity="1.000000" stroke="none" 
	d="
M147.883804,132.827423 
	C147.679260,124.392868 147.678864,124.398201 139.001694,123.742142 
	C138.536407,123.706963 138.087296,123.458000 137.135712,123.146584 
	C137.135712,120.456047 137.135712,117.688118 137.340790,114.368355 
	C137.750092,113.655739 137.906662,113.457344 138.015594,113.221344 
	C140.798325,113.221344 143.581055,113.221344 146.857712,113.221344 
	C146.981308,115.067215 147.087036,116.646988 147.192917,118.226753 
	C147.290054,119.676399 147.387344,121.126022 147.509827,122.951920 
	C149.389435,123.042389 150.992096,123.147102 152.596405,123.188644 
	C154.068054,123.226753 155.541458,123.196739 157.279465,123.196739 
	C157.662201,124.983597 157.993881,126.532173 158.403671,128.445343 
	C161.234848,128.445343 164.141876,128.445343 167.920319,128.445343 
	C167.920319,135.070801 167.920319,141.581909 167.960114,148.546509 
	C167.999924,148.999985 168.034622,148.966354 168.034622,148.966354 
	C164.898621,148.966354 161.762619,148.966354 158.104477,148.966354 
	C158.104477,143.985565 158.104477,139.401718 158.104477,133.842560 
	C154.693741,133.842560 151.788330,133.842560 148.431915,133.554077 
	C147.980911,133.265610 147.883804,132.827423 147.883804,132.827423 
z"/>
<path fill="#93DBC1" opacity="1.000000" stroke="none" 
	d="
M157.059296,111.935791 
	C155.317352,111.836929 154.032089,111.738213 152.471100,111.618317 
	C152.471100,108.158669 152.471100,104.949760 152.471100,101.463196 
	C155.934464,101.463196 159.143326,101.463196 162.643677,101.463196 
	C162.643677,104.841881 162.643677,107.931290 162.643677,111.677940 
	C160.984375,111.761429 159.250183,111.848679 157.059296,111.935791 
z"/>
<path fill="#A5E1CB" opacity="1.000000" stroke="none" 
	d="
M147.441925,132.924011 
	C147.883804,132.827423 147.980911,133.265610 147.977005,133.487930 
	C147.973099,136.842773 147.973099,139.975311 147.973099,143.547684 
	C144.362289,143.547684 141.151535,143.547684 137.465515,143.547684 
	C137.465515,140.513977 137.465515,137.307831 137.465515,133.481369 
	C140.534424,133.333054 143.767227,133.176819 147.441925,132.924011 
z"/>
<path fill="#93DBC1" opacity="1.000000" stroke="none" 
	d="
M175.691101,123.801422 
	C172.977768,123.824959 170.711685,123.824959 168.174744,123.824959 
	C168.174744,120.078049 168.174744,116.991257 168.174744,113.483223 
	C171.274246,113.483223 174.300446,113.483223 178.744598,113.483223 
	C177.813568,117.160812 176.975952,120.469353 175.691101,123.801422 
z"/>
<path fill="#8BD8BC" opacity="1.000000" stroke="none" 
	d="
M167.982559,149.016785 
	C171.084015,149.033569 174.202835,149.033569 177.657349,149.033569 
	C177.657349,152.348068 177.657349,155.259628 177.657349,158.630966 
	C174.709259,158.630966 171.690582,158.630966 167.944031,158.630966 
	C167.944031,155.726379 167.944031,152.806335 167.989319,149.426331 
	C168.034622,148.966354 167.999924,148.999985 167.982559,149.016785 
z"/>
<path fill="#A5E1CB" opacity="1.000000" stroke="none" 
	d="
M137.790283,113.233398 
	C137.906662,113.457344 137.750092,113.655739 137.383499,113.915237 
	C137.139786,113.670006 137.254395,113.413841 137.790283,113.233398 
z"/>
</svg>